<?xml version="1.0" standalone="no"?>
<!DOCTYPE svg PUBLIC "-//W3C//DTD SVG 20010904//EN"
 "http://www.w3.org/TR/2001/REC-SVG-20010904/DTD/svg10.dtd">
<svg version="1.0" xmlns="http://www.w3.org/2000/svg"
 width="625.000000pt" height="625.000000pt" viewBox="0 0 625.000000 625.000000"
 preserveAspectRatio="xMidYMid meet">
<metadata>
Created by potrace 1.14, written by Peter Selinger 2001-2017
</metadata>
<g transform="translate(0.000000,625.000000) scale(0.100000,-0.100000)"
fill="#000000" stroke="none">
<path d="M2969 4746 c-2 -2 -29 -6 -59 -10 -150 -17 -302 -58 -450 -122 -501
-217 -866 -707 -936 -1259 -16 -127 -9 -356 16 -485 36 -191 127 -423 210
-540 11 -16 20 -31 20 -34 0 -7 40 -66 51 -76 3 -3 22 -27 43 -55 172 -229
493 -446 784 -530 49 -14 100 -28 113 -30 13 -3 47 -9 74 -15 258 -51 627 -13
860 89 140 62 229 111 330 183 230 163 399 363 519 613 54 110 104 259 121
350 3 17 7 42 10 56 23 119 28 372 11 484 -24 154 -63 305 -91 357 -8 14 -15
31 -15 37 0 15 -63 146 -92 191 -12 19 -22 37 -23 40 0 6 -18 32 -99 140 -75
101 -233 256 -316 310 -12 8 -28 21 -36 28 -7 6 -16 12 -20 12 -4 0 -21 11
-39 24 -92 70 -352 176 -515 210 -41 8 -88 18 -105 21 -34 7 -359 17 -366 11z
m413 -924 c11 -11 14 -35 17 -134 l1 -28 204 0 c202 0 203 0 230 -25 14 -13
27 -28 28 -32 0 -4 2 -244 3 -532 1 -515 1 -524 -19 -554 -12 -17 -32 -33 -46
-36 -14 -4 -333 -6 -709 -5 l-684 0 -28 32 -28 32 -1 513 c0 346 3 523 11 544
20 59 37 63 259 63 183 0 200 1 201 18 7 146 6 141 30 150 36 14 517 8 531 -6z"/>
<path d="M2924 3701 l1 -36 188 -3 187 -3 0 39 0 38 -189 0 -188 0 1 -35z"/>
<path d="M2453 3554 c-2 -5 -2 -64 -1 -130 l3 -119 658 -1 657 0 1 28 c0 15 1
44 1 63 0 19 -1 65 -1 103 l-1 67 -656 0 c-454 0 -658 -3 -661 -11z"/>
<path d="M2460 3200 c-8 -5 -12 -150 -10 -498 l0 -132 125 1 c68 0 129 -2 134
-5 5 -4 12 -2 16 4 4 6 10 8 15 5 5 -3 143 -5 307 -5 164 0 307 1 318 1 11 -1
65 0 120 0 55 0 107 0 115 0 103 -2 163 -1 167 2 3 4 6 459 4 593 l-1 40 -257
0 c-247 -1 -256 -2 -259 -21 -5 -36 -28 -42 -146 -39 -62 1 -117 2 -121 3 -4
1 -12 14 -18 29 l-9 28 -245 0 c-135 0 -250 -3 -255 -6z"/>
</g>
</svg>
